# xmcd CD database file
#
# Track frame offsets:
#	150
#	31180
#	57892
#	87346
#	114839
#	144556
#	170926
#	189150
#	219467
#	245867
#
# Disc length: 3794 seconds
#
# Revision: 0
# Processed by: cddbd v1.5.2PL0 Copyright (c) Steve Scherf et al.
# Submitted via: CDex 1.51
#
DISCID=8a0ed00a
DTITLE=Ludovic de Preissac - L'enjeu des paradoxes
DYEAR=2011
DGENRE=Jazz
TTITLE0=Ouakam's trip
TTITLE1=Groovy boy
TTITLE2=Les paradoxes de l'instinct
TTITLE3=Salsacerdoce
TTITLE4=Preludio per un estate torrida
TTITLE5=L'enjeu du pentamix
TTITLE6=Quiet time
TTITLE7=Alexia
TTITLE8=Et de trois, on n'y revient
TTITLE9=Estate
EXTD=YEAR: 2011
EXTT0=
EXTT1=
EXTT2=
EXTT3=
EXTT4=
EXTT5=
EXTT6=
EXTT7=
EXTT8=
EXTT9=
PLAYORDER=
